<?xml version="1.0" encoding="utf-8"?>
<!-- Generator: Adobe Illustrator 18.1.1, SVG Export Plug-In . SVG Version: 6.00 Build 0)  -->
<svg version="1.1" baseProfile="tiny" id="Layer_1" xmlns="http://www.w3.org/2000/svg" xmlns:xlink="http://www.w3.org/1999/xlink"
	 x="0px" y="0px" width="20px" height="24px" viewBox="0 0 20 24" xml:space="preserve">
<g>
	<path fill="none" stroke="#404041" stroke-linecap="round" stroke-linejoin="round" stroke-miterlimit="10" d="M13,10.5
		c-0.3,0-0.6-0.2-0.8-0.4C12,9.8,11.9,9.4,12,9.1c0.3-0.7,0.5-1.5,0.5-2.3V3c0-1.4-1.1-2.5-2.5-2.5S7.5,1.6,7.5,3v3.8
		c0,0.8,0.2,1.6,0.5,2.3C8.1,9.4,8,9.8,7.9,10.1c-0.2,0.3-0.5,0.4-0.8,0.4H2c-0.8,0-1.5,0.7-1.5,1.5v3.5h19V12
		c0-0.8-0.7-1.5-1.5-1.5H13z M18.5,23.5h-12v-4l-2,4h-3v-8h17V23.5z M16.5,18.5v5 M14.5,19.5v4 M12.5,21v2.5"/>
	
		<circle fill="none" stroke="#404041" stroke-linecap="round" stroke-linejoin="round" stroke-miterlimit="10" cx="10" cy="3" r="0.5"/>
</g>
</svg>
