<?xml version="1.0" encoding="utf-8"?>
<!-- Generator: Adobe Illustrator 18.1.1, SVG Export Plug-In . SVG Version: 6.00 Build 0)  -->
<svg version="1.1" baseProfile="tiny" id="Layer_1" xmlns="http://www.w3.org/2000/svg" xmlns:xlink="http://www.w3.org/1999/xlink"
	 x="0px" y="0px" width="708.2px" height="452.2px" viewBox="0 0 708.2 452.2" xml:space="preserve">
<g>
	<path fill="#231F20" d="M18.8,4.7h632.7c6.6,0,12,5.4,12,12v418.7c0,6.6-5.4,12-12,12H18.8c-6.6,0-12-5.4-12-12V16.7
		C6.8,10.1,12.2,4.7,18.8,4.7z"/>
	<path fill="#D0D2D3" d="M18.8,4.7v1h632.7c3,0,5.8,1.2,7.8,3.2c2,2,3.2,4.7,3.2,7.8v418.7c0,3-1.2,5.8-3.2,7.8
		c-2,2-4.7,3.2-7.8,3.2H18.8c-3,0-5.8-1.2-7.8-3.2c-2-2-3.2-4.7-3.2-7.8V16.7c0-3,1.2-5.8,3.2-7.8c2-2,4.7-3.2,7.8-3.2V4.7v-1
		c-7.2,0-13,5.8-13,13v418.7c0,7.2,5.8,13,13,13h632.7c7.2,0,13-5.8,13-13V16.7c0-7.2-5.8-13-13-13H18.8V4.7z"/>
	<path fill="#FFF000" d="M625.8,436.6H74c-2.2,0-4-1.8-4-4V19.9c0-2.2,1.8-4,4-4h551.9c2.2,0,4,1.8,4,4v412.7
		C629.8,434.8,628,436.6,625.8,436.6z"/>
	<path fill="#58595B" d="M625.8,436.6v-0.5H74c-1,0-1.8-0.4-2.5-1c-0.6-0.6-1-1.5-1-2.5V19.9c0-1,0.4-1.8,1-2.5c0.6-0.6,1.5-1,2.5-1
		h551.9c1,0,1.8,0.4,2.5,1c0.6,0.6,1,1.5,1,2.5v412.7c0,1-0.4,1.8-1,2.5c-0.6,0.6-1.5,1-2.5,1V436.6v0.5c2.5,0,4.5-2,4.5-4.5V19.9
		c0-2.5-2-4.5-4.5-4.5H74c-2.5,0-4.5,2-4.5,4.5v412.7c0,2.5,2,4.5,4.5,4.5h551.9V436.6z"/>
	<circle fill="#212221" cx="39.4" cy="226" r="11"/>
	<path fill="#58595B" d="M28.4,226h0.5c0-2.9,1.2-5.5,3.1-7.4c1.9-1.9,4.5-3.1,7.4-3.1c2.9,0,5.5,1.2,7.4,3.1
		c1.9,1.9,3.1,4.5,3.1,7.4c0,2.9-1.2,5.5-3.1,7.4c-1.9,1.9-4.5,3.1-7.4,3.1c-2.9,0-5.5-1.2-7.4-3.1c-1.9-1.9-3.1-4.5-3.1-7.4H28.4
		h-0.5c0,6.4,5.1,11.5,11.5,11.5c6.4,0,11.5-5.1,11.5-11.5c0-6.4-5.1-11.5-11.5-11.5c-6.4,0-11.5,5.1-11.5,11.5H28.4z"/>
	<circle fill="#58595B" cx="646.6" cy="226" r="3.2"/>
	<path fill="#212221" d="M649.9,226h-0.5c0,1.5-1.2,2.7-2.7,2.7c-1.5,0-2.7-1.2-2.7-2.7c0-1.5,1.2-2.7,2.7-2.7
		c1.5,0,2.7,1.2,2.7,2.7H649.9h0.5c0-2.1-1.7-3.7-3.7-3.7c-2.1,0-3.7,1.7-3.7,3.7c0,2.1,1.7,3.7,3.7,3.7c2.1,0,3.7-1.7,3.7-3.7
		H649.9z"/>
	<path fill="#231F20" d="M689.4,447.5H548.9c-6.6,0-12-5.4-12-12V137.8c0-6.6,5.4-12,12-12h140.5c6.6,0,12,5.4,12,12v297.8
		C701.4,442.1,696,447.5,689.4,447.5z"/>
	<path fill="#D0D2D3" d="M689.4,447.5v-1H548.9c-3,0-5.8-1.2-7.8-3.2c-2-2-3.2-4.7-3.2-7.8V137.8c0-3,1.2-5.8,3.2-7.8
		c2-2,4.7-3.2,7.8-3.2h140.5c3,0,5.8,1.2,7.8,3.2c2,2,3.2,4.7,3.2,7.8v297.8c0,3-1.2,5.8-3.2,7.8c-2,2-4.7,3.2-7.8,3.2V447.5v1
		c7.2,0,13-5.8,13-13V137.8c0-7.2-5.8-13-13-13H548.9c-7.2,0-13,5.8-13,13v297.8c0,7.2,5.8,13,13,13h140.5V447.5z"/>
	<circle fill="#58595B" cx="619.2" cy="137.7" r="2.4"/>
	<path fill="#212221" d="M621.5,137.7H621c0,1-0.8,1.8-1.9,1.9c-1,0-1.8-0.8-1.9-1.9c0-1,0.8-1.8,1.9-1.9c1,0,1.8,0.8,1.9,1.9H621.5
		h0.5c0-1.6-1.3-2.9-2.9-2.9c-1.6,0-2.9,1.3-2.9,2.9c0,1.6,1.3,2.9,2.9,2.9c1.6,0,2.9-1.3,2.9-2.9H621.5z"/>
	<circle fill="#212221" cx="619.2" cy="431.1" r="8"/>
	<path fill="#58595B" d="M627.2,431.1h-0.5c0,2.1-0.8,3.9-2.2,5.3c-1.4,1.4-3.2,2.2-5.3,2.2c-2.1,0-3.9-0.8-5.3-2.2
		c-1.4-1.4-2.2-3.2-2.2-5.3c0-2.1,0.8-3.9,2.2-5.3c1.4-1.4,3.2-2.2,5.3-2.2c2.1,0,3.9,0.8,5.3,2.2c1.4,1.4,2.2,3.2,2.2,5.3H627.2
		h0.5c0-4.7-3.8-8.5-8.5-8.5c-4.7,0-8.5,3.8-8.5,8.5c0,4.7,3.8,8.5,8.5,8.5c4.7,0,8.5-3.8,8.5-8.5H627.2z"/>
	<path fill="#FFF000" d="M690.6,414.3H548.1c-2.2,0-4-1.8-4-4V152.3c0-2.2,1.8-4,4-4h142.4c2.2,0,4,1.8,4,4v258.1
		C694.6,412.5,692.8,414.3,690.6,414.3z"/>
	<path fill="#58595B" d="M690.6,414.3v-0.5H548.1c-1,0-1.8-0.4-2.5-1c-0.6-0.6-1-1.5-1-2.5V152.3c0-1,0.4-1.8,1-2.5
		c0.6-0.6,1.5-1,2.5-1h142.4c1,0,1.8,0.4,2.5,1c0.6,0.6,1,1.5,1,2.5v258.1c0,1-0.4,1.8-1,2.5c-0.6,0.6-1.5,1-2.5,1V414.3v0.5
		c2.5,0,4.5-2,4.5-4.5V152.3c0-2.5-2-4.5-4.5-4.5H548.1c-2.5,0-4.5,2-4.5,4.5v258.1c0,2.5,2,4.5,4.5,4.5h142.4V414.3z"/>
</g>
</svg>
