<?xml version="1.0" encoding="utf-8"?>
<!-- Generator: Adobe Illustrator 18.1.1, SVG Export Plug-In . SVG Version: 6.00 Build 0)  -->
<svg version="1.1" baseProfile="tiny" id="Layer_1" xmlns="http://www.w3.org/2000/svg" xmlns:xlink="http://www.w3.org/1999/xlink"
	 x="0px" y="0px" width="934.9px" height="1168.4px" viewBox="0 0 934.9 1168.4" xml:space="preserve">
<path fill="none" stroke="#58595B" stroke-miterlimit="10" d="M285.9,0.5c358.2,0,648.6,290.4,648.6,648.6
	c0,286.6-232.3,518.9-518.9,518.9c-229.2,0-415.1-185.8-415.1-415.1c0-183.4,148.7-332.1,332.1-332.1
	c146.7,0,265.7,118.9,265.7,265.7c0,117.4-95.2,212.5-212.5,212.5c-93.9,0-170-76.1-170-170c0-75.1,60.9-136,136-136
	c60.1,0,108.8,48.7,108.8,108.8c0,48.1-39,87-87,87"/>
</svg>
